<?xml version="1.0" standalone="no"?>
<!DOCTYPE svg PUBLIC "-//W3C//DTD SVG 20010904//EN"
 "http://www.w3.org/TR/2001/REC-SVG-20010904/DTD/svg10.dtd">
<svg version="1.0" xmlns="http://www.w3.org/2000/svg"
 width="360.000000pt" height="454.000000pt" viewBox="0 0 360.000000 454.000000"
 preserveAspectRatio="xMidYMid meet">

<g transform="translate(0.000000,454.000000) scale(0.100000,-0.100000)"
fill="#000000" stroke="none">
<path d="M1549 3529 c-61 -9 -98 -30 -142 -78 -71 -78 -73 -150 -13 -408 129
-550 183 -937 173 -1240 -10 -334 -79 -453 -284 -493 -46 -9 -74 -9 -113 -1
-105 22 -141 52 -252 201 -53 71 -68 85 -94 88 -66 6 -83 -64 -43 -180 66
-198 168 -295 359 -344 89 -23 244 -15 322 15 214 83 353 282 418 595 65 316
50 1065 -31 1556 -23 136 -40 179 -91 226 -61 58 -123 77 -209 63z"/>
<path d="M2595 3470 c-256 -56 -379 -239 -416 -617 -13 -129 -7 -490 12 -728
14 -180 17 -504 5 -667 l-9 -128 32 0 c44 0 63 24 100 126 98 269 124 475 141
1094 12 455 22 509 102 596 56 62 125 94 201 94 68 0 102 -15 147 -66 115
-131 131 -362 39 -547 -71 -142 -147 -210 -299 -268 -62 -24 -84 -37 -91 -56
-15 -40 -10 -70 15 -100 22 -25 30 -28 83 -26 79 1 199 49 285 113 116 85 195
204 244 365 24 79 27 106 27 230 1 125 -2 149 -26 221 -56 170 -169 294 -315
346 -64 22 -213 32 -277 18z"/>
</g>
</svg>
